<svg width="223" height="101" viewBox="0 0 223 101" fill="none" xmlns="http://www.w3.org/2000/svg">
<path d="M63.7493 37.4975C64.0791 39.0641 64.6562 39.971 66.1816 40.0947V41.4139H56.4112V40.0947C57.9366 39.971 58.39 39.1465 58.1015 37.58L54.721 19.6059L47.383 41.4139H45.1568L37.4477 19.6059L34.6857 37.4975C34.3971 39.229 34.7269 39.971 36.2934 40.0947V41.4139H30.2746V40.0947C31.7999 39.971 32.2122 39.1465 32.5007 37.4975L35.7163 16.4315C36.0049 14.7001 35.6338 13.9993 34.1085 13.8344V12.5564H40.8694L47.8777 32.7154L54.6386 12.5564H61.1521V13.8344C59.5856 13.9993 59.1321 14.6589 59.5031 16.4315L63.7493 37.4975Z" fill="white"/>
<path d="M93.4876 37.4975C94.1472 39.0228 94.9305 39.971 96.4558 40.0947V41.4139H85.3251V40.0947C86.9329 40.0122 87.6749 39.0228 87.0978 37.4975L85.1602 32.633H74.5242L72.7102 37.4975C72.1331 39.1053 72.7515 39.971 74.318 40.0947V41.4139H67.2273V40.0947C68.7526 39.971 69.5771 39.0641 70.1131 37.4975L77.7397 16.8026C78.3581 15.1948 78.1107 13.958 76.4617 13.8344V12.5564H83.0577L93.4876 37.4975ZM75.3899 30.2831H84.212L79.6773 18.6577L75.3899 30.2831Z" fill="white"/>
<path d="M121.995 37.4975C122.944 38.9404 123.933 39.8886 125.128 40.0947V41.4139H117.378L110.205 29.706C110.123 29.706 110.04 29.706 109.958 29.706H106.412V37.4975C106.412 39.1053 106.825 39.971 108.391 40.0947V41.4139H98.4971V40.0947C100.064 39.971 100.476 39.1053 100.476 37.4975V16.4315C100.476 14.8238 100.064 13.9993 98.4971 13.8756V12.5564H109.958C116.801 12.5564 121.542 15.8544 121.542 21.1312C121.542 24.5941 119.522 27.1913 116.183 28.5929L121.995 37.4975ZM106.412 27.3562H108.597C113.008 27.3562 115.276 24.8414 115.276 21.1312C115.276 17.4209 113.008 14.9474 108.597 14.9474H106.412V27.3562Z" fill="white"/>
<path d="M150.689 32.7979H151.843L150.895 39.0228C148.298 41.0016 144.752 42.0323 140.588 41.8261C131.766 41.4139 124.923 35.9722 124.923 26.9851C124.923 17.9981 131.643 12.1441 140.465 12.1441C144.175 12.1441 148.215 13.216 150.895 14.9474V21.461H149.74C148.504 16.3079 145.206 13.6282 140.712 13.6695C134.528 13.7519 131.519 19.5646 131.519 26.9851C131.519 34.8179 135.27 40.0535 141.124 40.3008C145.989 40.5069 148.998 38.0334 150.689 32.7979Z" fill="white"/>
<path d="M178.957 37.4975C179.617 39.0228 180.4 39.971 181.925 40.0947V41.4139H170.794V40.0947C172.402 40.0122 173.144 39.0228 172.567 37.4975L170.63 32.633H159.994L158.18 37.4975C157.602 39.1053 158.221 39.971 159.787 40.0947V41.4139H152.697V40.0947C154.222 39.971 155.047 39.0641 155.582 37.4975L163.209 16.8026C163.827 15.1948 163.58 13.958 161.931 13.8344V12.5564H168.527L178.957 37.4975ZM160.859 30.2831H169.681L165.147 18.6577L160.859 30.2831Z" fill="white"/>
<path d="M0.989045 95.4426L51.0707 37.8982C51.3704 37.5385 51.9998 37.3587 52.9588 37.3587C53.9179 37.3587 54.3974 37.5985 54.3974 38.078C54.3974 38.2578 54.2476 38.4976 53.9479 38.7973L33.5376 61.8151C33.2379 62.1747 33.088 62.4145 33.088 62.5344C33.088 62.6543 33.118 62.7142 33.1779 62.7142C33.2978 62.7142 33.8973 62.2646 34.9762 61.3655C36.0552 60.4064 39.4719 58.0687 45.2263 54.3523C51.0407 50.5759 54.7571 48.6877 56.3755 48.6877C57.0349 48.6877 57.3646 49.1073 57.3646 49.9465C57.3646 51.565 56.4954 53.603 54.7571 56.0606C53.0188 58.4583 51.0707 60.6462 48.9128 62.6243C43.3381 67.8392 40.5508 70.6266 40.5508 70.9862C40.5508 71.2859 40.6707 71.4358 40.9105 71.4358C44.2672 70.3568 47.2044 69.0681 49.722 67.5695L58.5335 61.9949L58.6234 63.1638C52.3294 67.3597 47.624 70.0271 44.507 71.166C41.45 72.3049 39.4719 72.8744 38.5727 72.8744C37.7335 72.8744 37.3139 72.6046 37.3139 72.0652C37.3139 70.9862 38.8125 68.8283 41.8096 65.5914C44.8667 62.3545 47.9237 59.2076 50.9808 56.1505C54.0378 53.0336 55.5663 51.1754 55.5663 50.5759C55.5663 50.456 55.4764 50.3961 55.2966 50.3961C53.9779 50.3961 50.9807 51.8947 46.3053 54.8918C41.6897 57.8289 38.6027 59.9269 37.0442 61.1857C35.5457 62.3845 34.167 63.5534 32.9082 64.6923C31.6494 65.7712 30.6004 66.7003 29.7612 67.4796C28.982 68.2588 28.2028 69.0081 27.4235 69.7274C26.7042 70.3868 26.1048 70.9562 25.6252 71.4358C25.1457 71.9153 21.759 75.7816 15.4651 83.0346C9.17114 90.3475 5.54464 94.6334 4.58557 95.8922C3.6265 97.2109 2.63745 97.8702 1.61844 97.8702C0.539479 97.8103 0 97.6005 0 97.2408C0 96.8812 0.329682 96.2818 0.989045 95.4426Z" fill="white"/>
<path d="M78.1731 49.5869C78.1731 49.4071 78.0533 49.3171 77.8135 49.3171C76.1951 49.3171 73.6775 50.7258 70.2608 53.5431C66.8441 56.3603 63.877 59.4474 61.3594 62.8041C64.3565 61.845 67.8931 59.6871 71.9691 56.3304C76.1051 52.9736 78.1731 50.7258 78.1731 49.5869ZM57.4032 70.8064C57.4032 71.5856 57.7029 71.9753 58.3023 71.9753C59.0216 71.9753 60.6401 71.4957 63.1577 70.5366C65.6752 69.5176 67.7432 68.5286 69.3617 67.5695L78.1731 61.9949L78.2631 63.1638C71.9691 67.3597 67.2637 70.0271 64.1467 71.166C61.0896 72.3049 59.0516 72.8744 58.0326 72.8744C56.3542 72.8744 55.515 71.8254 55.515 69.7274C55.515 66.9101 56.5341 64.0929 58.5721 61.2756C60.6101 58.4583 62.9778 56.1505 65.6752 54.3523C68.4326 52.554 71.07 51.0854 73.5876 49.9465C76.1651 48.8076 78.1132 48.2382 79.4319 48.2382C80.7507 48.2382 81.41 48.6877 81.41 49.5869C81.41 51.8047 78.7726 54.5021 73.4977 57.6791C68.2827 60.856 63.9369 62.954 60.4603 63.973C58.4222 66.9101 57.4032 69.188 57.4032 70.8064Z" fill="white"/>
<path d="M78.2427 63.1638C77.943 63.3436 77.5833 63.5834 77.1637 63.8831L76.894 62.8041C83.6674 58.4883 89.1821 55.1315 93.438 52.7338L95.8657 51.2952C96.7648 50.5759 97.7538 49.7367 98.8328 48.7777C101.111 46.9794 102.309 46.1102 102.429 46.1702C102.729 46.1702 102.879 46.32 102.879 46.6197C102.879 46.8595 102.639 47.3091 102.16 47.9684C101.68 48.5679 100.991 49.2872 100.092 50.1264C99.2524 50.9656 98.7429 51.505 98.5631 51.7448C97.6639 52.6439 96.1654 55.5212 94.0674 60.3765C92.0294 65.1718 90.9204 67.7493 90.7406 68.109C90.7406 68.3488 90.8005 68.4686 90.9204 68.4686C91.1003 68.4686 91.2201 68.4387 91.2801 68.3787L101.35 61.9949L101.44 63.1638C100.721 63.5834 99.5221 64.3326 97.8438 65.4116C96.1654 66.4906 94.9665 67.2398 94.2472 67.6594C93.5879 68.079 92.5988 68.7084 91.2801 69.5476C89.9614 70.3268 88.9424 70.8963 88.223 71.256C87.5037 71.6156 86.6646 72.0352 85.7055 72.5147C83.2478 73.234 81.6894 73.5937 81.03 73.5937C80.9701 73.5937 80.9401 73.5937 80.9401 73.5937C79.3216 73.5937 78.0029 73.1142 76.9839 72.1551C75.9649 71.196 75.4554 70.0871 75.4554 68.8283C75.4554 67.5695 75.875 66.4905 76.7142 65.5914C77.6133 64.6923 78.6623 64.2427 79.8611 64.2427C81.06 64.2427 81.6594 64.7223 81.6594 65.6813C81.6594 66.2208 81.4496 66.7303 81.03 67.2099C80.6703 67.6894 80.1908 67.9292 79.5914 67.9292C79.0519 67.9292 78.7222 67.6594 78.6023 67.1199C78.5424 66.5805 78.3925 66.3107 78.1528 66.3107C77.7332 66.3107 77.3735 66.5205 77.0738 66.9401C76.834 67.3597 76.7142 67.9591 76.7142 68.7384C76.7142 69.5176 77.0738 70.2969 77.7931 71.0761C78.5124 71.7954 79.5314 72.1551 80.8502 72.1551C82.1689 72.1551 83.3977 71.6756 84.5366 70.7165C85.7354 69.7574 86.5447 68.9182 86.9643 68.1989C87.3839 67.4796 88.283 65.4715 89.6617 62.1747C91.0403 58.818 92.4789 56.1805 93.9775 54.2624L94.1573 53.9027C94.1573 53.8428 94.0674 53.8128 93.8876 53.8128C93.408 53.8128 89.4219 56.1505 81.9291 60.826L78.2427 63.1638Z" fill="white"/>
<path d="M101.423 63.1638C101.124 63.3436 100.764 63.5834 100.344 63.8831L100.075 62.8041C106.848 58.4883 112.363 55.1315 116.619 52.7338L119.046 51.2952C119.946 50.5759 120.935 49.7367 122.014 48.7777C124.291 46.9794 125.49 46.1102 125.61 46.1702C125.91 46.1702 126.06 46.32 126.06 46.6197C126.06 46.8595 125.82 47.3091 125.34 47.9684C124.861 48.5679 124.171 49.2872 123.272 50.1264C122.433 50.9656 121.924 51.505 121.744 51.7448C120.845 52.6439 119.346 55.5212 117.248 60.3765C115.21 65.1718 114.101 67.7493 113.921 68.109C113.921 68.3488 113.981 68.4686 114.101 68.4686C114.281 68.4686 114.401 68.4387 114.461 68.3787L124.531 61.9949L124.621 63.1638C123.902 63.5834 122.703 64.3326 121.024 65.4116C119.346 66.4906 118.147 67.2398 117.428 67.6594C116.769 68.079 115.78 68.7084 114.461 69.5476C113.142 70.3268 112.123 70.8963 111.404 71.256C110.684 71.6156 109.845 72.0352 108.886 72.5147C106.429 73.234 104.87 73.5937 104.211 73.5937C104.151 73.5937 104.121 73.5937 104.121 73.5937C102.502 73.5937 101.184 73.1142 100.165 72.1551C99.1456 71.196 98.6361 70.0871 98.6361 68.8283C98.6361 67.5695 99.0557 66.4905 99.8949 65.5914C100.794 64.6923 101.843 64.2427 103.042 64.2427C104.241 64.2427 104.84 64.7223 104.84 65.6813C104.84 66.2208 104.63 66.7303 104.211 67.2099C103.851 67.6894 103.372 67.9292 102.772 67.9292C102.233 67.9292 101.903 67.6594 101.783 67.1199C101.723 66.5805 101.573 66.3107 101.334 66.3107C100.914 66.3107 100.554 66.5205 100.255 66.9401C100.015 67.3597 99.8949 67.9591 99.8949 68.7384C99.8949 69.5176 100.255 70.2969 100.974 71.0761C101.693 71.7954 102.712 72.1551 104.031 72.1551C105.35 72.1551 106.578 71.6756 107.717 70.7165C108.916 69.7574 109.725 68.9182 110.145 68.1989C110.565 67.4796 111.464 65.4715 112.842 62.1747C114.221 58.818 115.66 56.1805 117.158 54.2624L117.338 53.9027C117.338 53.8428 117.248 53.8128 117.068 53.8128C116.589 53.8128 112.603 56.1505 105.11 60.826L101.423 63.1638Z" fill="white"/>
<path d="M142.857 52.4641V52.3742C141.658 52.9736 140.339 54.4122 138.9 56.69C137.462 58.9079 136.623 60.826 136.383 62.4445C140.699 58.0087 142.857 54.682 142.857 52.4641ZM123.705 71.256C125.983 71.256 129.669 68.8583 134.764 64.0629V63.6133C134.764 61.7551 135.663 59.4773 137.462 56.7799C139.32 54.0226 140.998 52.2543 142.497 51.4751C142.317 51.2952 142.077 51.2053 141.778 51.2053C139.56 51.2053 135.873 53.7529 130.718 58.8479C125.623 63.943 123.076 67.8992 123.076 70.7165C123.076 71.0761 123.285 71.256 123.705 71.256ZM120.918 69.9972C120.918 65.5015 123.495 61.0358 128.65 56.6001C133.865 52.1045 138.181 49.8566 141.598 49.8566C143.276 49.8566 144.115 50.6059 144.115 52.1045C144.115 56.3603 141.837 60.6162 137.282 64.8721C137.642 64.992 138.001 65.0519 138.361 65.0519C140.039 65.0519 142.467 64.003 145.644 61.905L146.093 62.8041C142.257 65.3816 139.35 66.6704 137.372 66.6704C136.593 66.6704 136.023 66.5205 135.663 66.2208C133.326 68.139 130.868 69.6975 128.291 70.8963C125.713 72.0951 123.825 72.6946 122.626 72.6946C121.487 72.6946 120.918 71.7954 120.918 69.9972Z" fill="white"/>
<path d="M171.936 61.9949L172.026 63.1638C162.376 69.5776 156.501 72.7845 154.403 72.7845C154.044 72.7845 153.864 72.5747 153.864 72.1551C153.864 70.8963 154.343 69.098 155.302 66.7603L155.752 65.5015C155.752 65.3816 155.632 65.3217 155.392 65.3217C155.213 65.3217 153.474 66.5205 150.177 68.9182C146.941 71.3159 144.813 72.5147 143.794 72.5147C142.835 72.5147 142.355 71.6156 142.355 69.8173C142.355 64.8421 145.172 59.9868 150.807 55.2514C156.501 50.516 163.335 48.1483 171.307 48.1483C172.026 48.1483 172.386 48.448 172.386 49.0474C172.386 49.6468 169.569 53.1534 163.934 59.5672C158.3 65.9211 155.482 69.7574 155.482 71.0761C155.482 71.3159 155.662 71.4358 156.022 71.4358C156.381 71.4358 157.91 70.6565 160.607 69.098C163.305 67.5395 165.852 65.981 168.25 64.4225L171.936 61.9949ZM157.64 62.0848C158.659 61.3056 160.637 59.2376 163.574 55.8808C166.512 52.5241 167.98 50.5759 167.98 50.0364C167.98 49.7967 167.74 49.6768 167.261 49.6768C164.504 49.6768 161.297 50.9656 157.64 53.5431C153.984 56.0606 150.867 58.9379 148.289 62.1747C145.772 65.4116 144.513 68.0191 144.513 69.9972C144.513 70.3568 144.693 70.5366 145.052 70.5366C145.412 70.5366 145.981 70.3268 146.761 69.9072C147.6 69.4277 148.589 68.7983 149.728 68.0191C150.927 67.1799 151.946 66.4606 152.785 65.8612C155.662 63.7032 157.281 62.4445 157.64 62.0848Z" fill="white"/>
<path d="M220.482 13.5317C218.684 13.5317 212.061 19.2862 200.612 30.795C189.163 42.3039 180.471 52.1644 174.537 60.3765C180.052 56.1805 189.103 47.9684 201.691 35.7403C214.338 23.4521 220.662 16.1392 220.662 13.8015C220.662 13.6816 220.602 13.5917 220.482 13.5317ZM222.191 11.9133C222.73 11.9133 223 12.243 223 12.9023C223 15.7795 216.556 23.4521 203.669 35.9201C190.841 48.3281 180.651 57.1696 173.098 62.4445C170.461 66.2208 169.142 68.9482 169.142 70.6266C169.142 71.166 169.262 71.4358 169.502 71.4358C171.959 71.4358 176.365 69.4577 182.719 65.5015L188.114 61.9949L188.204 63.1638C186.705 64.1228 184.997 65.2018 183.079 66.4006C176.125 70.7165 171.3 72.8744 168.603 72.8744C167.883 72.8744 167.524 72.3049 167.524 71.166C167.524 67.6894 169.951 62.5643 174.807 55.7909C179.662 48.9575 185.207 42.3639 191.44 36.01C197.734 29.5962 203.878 23.9916 209.873 19.1962C215.927 14.3409 220.033 11.9133 222.191 11.9133Z" fill="white"/>
<path d="M32.8709 80.1944C40.7484 80.1944 44.643 84.7675 44.643 90.5208C44.643 96.2445 40.7484 100.847 32.8709 100.847H24.5802V99.903C25.7014 99.8145 25.9964 99.1949 25.9964 98.0443V82.9677C25.9964 81.8171 25.7014 81.227 24.5802 81.109V80.1944H32.8709ZM32.2808 99.1359C37.385 99.1359 39.9518 95.684 39.9518 90.5208C39.9518 85.3576 37.385 81.8761 32.2808 81.8761H30.245V99.1359H32.2808Z" fill="white"/>
<path d="M61.3821 95.2709H62.1197L61.5296 100.847H46.2761V99.903C47.3972 99.8145 47.6628 99.1949 47.6628 98.0443V82.9677C47.6628 81.8171 47.3972 81.227 46.2761 81.109V80.1944H60.9691L61.5296 85.7411H60.792C60.379 84.1774 59.4054 81.8761 56.632 81.8761H51.9408V89.5176H55.0683C57.104 89.5176 57.4876 88.839 57.6941 87.5999H58.4317V93.1466H57.6941C57.4876 91.9074 57.104 91.2288 55.0683 91.2288H51.9408V99.1359H57.2221C59.9659 99.1359 60.9691 96.8346 61.3821 95.2709Z" fill="white"/>
<path d="M78.8904 80.1944L79.4805 85.7411H78.7134C78.3004 84.1774 77.3267 81.8761 74.5829 81.8761H69.8917V89.9012H72.9896C75.0254 89.9012 75.409 89.2226 75.6155 87.9834H76.3531V93.5302H75.6155C75.409 92.291 75.0254 91.6124 72.9896 91.6124H69.8917V98.0443C69.8917 99.1949 70.1868 99.8145 71.2784 99.903V100.847H64.1974V99.903C65.3186 99.8145 65.6136 99.1949 65.6136 98.0443V82.9677C65.6136 81.8171 65.3186 81.227 64.1974 81.109V80.1944H78.8904Z" fill="white"/>
<path d="M88.3354 81.109C87.2143 81.227 86.9192 81.8171 86.9192 82.9677V98.0443C86.9192 99.1949 87.2143 99.8145 88.3354 99.903V100.847H81.2545V99.903C82.3461 99.8145 82.6411 99.1949 82.6411 98.0443V82.9677C82.6411 81.8171 82.3461 81.227 81.2545 81.109V80.1944H88.3354V81.109Z" fill="white"/>
<path d="M105.811 80.1944H110.325V81.109C109.204 81.227 108.909 81.8171 108.909 82.9677V100.847H106.342L93.8029 84.974V98.0443C93.8029 99.1949 94.0979 99.8145 95.2191 99.903V100.847H90.705V99.903C91.8261 99.8145 92.1211 99.1949 92.1211 98.0443V82.9677C92.1211 81.8171 91.8261 81.227 90.705 81.109V80.1944H95.6321L107.227 94.9168V82.9677C107.227 81.8171 106.932 81.227 105.811 81.109V80.1944Z" fill="white"/>
<path d="M119.626 81.109C118.505 81.227 118.21 81.8171 118.21 82.9677V98.0443C118.21 99.1949 118.505 99.8145 119.626 99.903V100.847H112.545V99.903C113.636 99.8145 113.932 99.1949 113.932 98.0443V82.9677C113.932 81.8171 113.636 81.227 112.545 81.109V80.1944H119.626V81.109Z" fill="white"/>
<path d="M139.432 80.1944L139.993 85.7411H139.255C138.842 84.1774 137.868 81.9056 135.095 81.9056H132.823V98.0443C132.823 99.1949 133.118 99.8145 134.24 99.903V100.847H127.159V99.903C128.28 99.8145 128.575 99.1949 128.575 98.0443V81.9056H126.303C123.53 81.9056 122.556 84.1774 122.143 85.7411H121.405L121.966 80.1944H139.432Z" fill="white"/>
<path d="M148.842 81.109C147.721 81.227 147.425 81.8171 147.425 82.9677V98.0443C147.425 99.1949 147.721 99.8145 148.842 99.903V100.847H141.761V99.903C142.852 99.8145 143.147 99.1949 143.147 98.0443V82.9677C143.147 81.8171 142.852 81.227 141.761 81.109V80.1944H148.842V81.109Z" fill="white"/>
<path d="M166.347 80.1944H171.038V81.1385C169.946 81.227 169.356 81.8761 168.973 82.9677L162.393 100.847H159.915L152.421 82.9677C151.978 81.8761 151.418 81.227 150.326 81.1385V80.1944H158.263V81.1385C157.112 81.1975 156.64 82.0531 157.053 83.1152L162.275 96.5986L167.291 82.9677C167.733 81.8171 167.438 81.168 166.347 81.1385V80.1944Z" fill="white"/>
<path d="M186.581 98.0443C187.053 99.1359 187.613 99.8145 188.705 99.903V100.847H180.739V99.903C181.889 99.844 182.42 99.1359 182.007 98.0443L180.621 94.5628H173.009L171.711 98.0443C171.297 99.1949 171.74 99.8145 172.861 99.903V100.847H167.786V99.903C168.878 99.8145 169.468 99.1654 169.852 98.0443L175.31 83.2333C175.753 82.0826 175.576 81.1975 174.395 81.109V80.1944H179.116L186.581 98.0443ZM173.628 92.8811H179.942L176.697 84.5609L173.628 92.8811Z" fill="white"/>
<path d="M75.8406 3.97131L74.8453 0.0579752H75.6811L76.2609 2.6572H76.2802L76.9711 0.0579752H77.7151L78.435 2.6572H78.4543L79.034 0.0579752H79.8699L78.8746 3.97131H78.0823L77.3528 1.28029H77.3334L76.6329 3.97131H75.8406Z" fill="white"/>
<path d="M86.2506 4.02928C85.8995 4.02928 85.5855 3.94715 85.3085 3.78289C85.0347 3.6154 84.8173 3.38189 84.6563 3.08235C84.4985 2.77959 84.4195 2.42369 84.4195 2.01464C84.4195 1.60237 84.4985 1.24647 84.6563 0.946929C84.8173 0.644169 85.0347 0.410658 85.3085 0.246395C85.5855 0.0821315 85.8995 0 86.2506 0C86.6049 0 86.9189 0.0821315 87.1927 0.246395C87.4697 0.407437 87.6871 0.639338 87.8449 0.942098C88.0027 1.24164 88.0817 1.59915 88.0817 2.01464C88.0817 2.42369 88.0011 2.77959 87.8401 3.08235C87.6823 3.38511 87.4665 3.61862 87.1927 3.78289C86.9189 3.94715 86.6049 4.02928 86.2506 4.02928ZM86.2506 3.31425C86.46 3.31425 86.6403 3.26111 86.7917 3.15482C86.9463 3.04531 87.0655 2.89393 87.1492 2.70068C87.2362 2.50421 87.2797 2.27553 87.2797 2.01464C87.2797 1.75053 87.2362 1.52185 87.1492 1.3286C87.0655 1.13213 86.9463 0.980748 86.7917 0.87446C86.6403 0.768172 86.46 0.715028 86.2506 0.715028C86.0445 0.715028 85.8641 0.768172 85.7095 0.87446C85.5549 0.980748 85.4341 1.13213 85.3472 1.3286C85.2634 1.52185 85.2215 1.75053 85.2215 2.01464C85.2215 2.27553 85.2634 2.50421 85.3472 2.70068C85.4341 2.89393 85.5549 3.04531 85.7095 3.15482C85.8641 3.26111 86.0445 3.31425 86.2506 3.31425Z" fill="white"/>
<path d="M93.1571 3.97131V0.0579752H94.9736C95.2216 0.0579752 95.439 0.101457 95.6258 0.188419C95.8159 0.272162 95.964 0.394554 96.0703 0.555596C96.1766 0.713418 96.2297 0.901837 96.2297 1.12085C96.2297 1.31411 96.183 1.48803 96.0896 1.64263C95.9995 1.79401 95.8545 1.90352 95.6548 1.97116V1.99532C95.8449 1.99532 95.9882 2.04363 96.0848 2.14025C96.1814 2.23366 96.2297 2.37538 96.2297 2.56541V3.97131H95.4278V2.48327H93.9542V3.97131H93.1571ZM93.9542 1.77308H94.9205C95.0751 1.77308 95.2007 1.7296 95.2973 1.64263C95.3939 1.55567 95.4422 1.43167 95.4422 1.27062C95.4422 1.10958 95.3939 0.985579 95.2973 0.898616C95.2007 0.811654 95.0751 0.768172 94.9205 0.768172H93.9542V1.77308Z" fill="white"/>
<path d="M101.44 3.97131V0.0579752H102.237V1.65229H102.257L103.725 0.0579752H104.691L103.184 1.67645L104.735 3.97131H103.783L102.604 2.22238L102.237 2.54608V3.97131H101.44Z" fill="white"/>
<path d="M110.71 4.02928C110.391 4.02928 110.113 3.97614 109.874 3.86985C109.639 3.76356 109.452 3.61218 109.314 3.41571C109.178 3.21924 109.101 2.98895 109.082 2.72484H109.893C109.929 2.93419 110.019 3.09362 110.164 3.20313C110.312 3.31264 110.504 3.3674 110.739 3.3674C110.948 3.3674 111.109 3.32392 111.222 3.23695C111.335 3.14999 111.391 3.03082 111.391 2.87944C111.391 2.76027 111.353 2.66203 111.275 2.58473C111.201 2.50421 111.08 2.44462 110.913 2.40597L110.256 2.2562C109.905 2.17568 109.642 2.04363 109.468 1.86004C109.294 1.67645 109.207 1.44455 109.207 1.16434C109.207 0.929214 109.265 0.724691 109.381 0.550765C109.501 0.376839 109.666 0.241564 109.879 0.144938C110.095 0.0483127 110.348 0 110.638 0C110.927 0 111.182 0.0499231 111.401 0.149769C111.62 0.249616 111.794 0.391333 111.923 0.574921C112.055 0.75851 112.129 0.975917 112.145 1.22714H111.333C111.295 1.03711 111.211 0.892175 111.082 0.792329C110.953 0.689261 110.789 0.637728 110.589 0.637728C110.406 0.637728 110.259 0.679599 110.15 0.763341C110.043 0.843862 109.99 0.951761 109.99 1.08704C109.99 1.1901 110.027 1.28029 110.101 1.35759C110.179 1.43489 110.293 1.49125 110.444 1.52668L111.135 1.68128C111.483 1.75858 111.742 1.89064 111.913 2.07745C112.087 2.26104 112.174 2.50743 112.174 2.81663C112.174 3.18703 112.045 3.48174 111.787 3.70075C111.533 3.91977 111.174 4.02928 110.71 4.02928Z" fill="white"/>
<path d="M117.208 3.97131V0.0579752H118.005V1.58466H119.677V0.0579752H120.474V3.97131H119.677V2.29969H118.005V3.97131H117.208Z" fill="white"/>
<path d="M127.382 4.02928C127.031 4.02928 126.717 3.94715 126.44 3.78289C126.167 3.6154 125.949 3.38189 125.788 3.08235C125.63 2.77959 125.551 2.42369 125.551 2.01464C125.551 1.60237 125.63 1.24647 125.788 0.946929C125.949 0.644169 126.167 0.410658 126.44 0.246395C126.717 0.0821315 127.031 0 127.382 0C127.737 0 128.051 0.0821315 128.325 0.246395C128.602 0.407437 128.819 0.639338 128.977 0.942098C129.135 1.24164 129.214 1.59915 129.214 2.01464C129.214 2.42369 129.133 2.77959 128.972 3.08235C128.814 3.38511 128.598 3.61862 128.325 3.78289C128.051 3.94715 127.737 4.02928 127.382 4.02928ZM127.382 3.31425C127.592 3.31425 127.772 3.26111 127.924 3.15482C128.078 3.04531 128.197 2.89393 128.281 2.70068C128.368 2.50421 128.412 2.27553 128.412 2.01464C128.412 1.75053 128.368 1.52185 128.281 1.3286C128.197 1.13213 128.078 0.980748 127.924 0.87446C127.772 0.768172 127.592 0.715028 127.382 0.715028C127.176 0.715028 126.996 0.768172 126.841 0.87446C126.687 0.980748 126.566 1.13213 126.479 1.3286C126.395 1.52185 126.353 1.75053 126.353 2.01464C126.353 2.27553 126.395 2.50421 126.479 2.70068C126.566 2.89393 126.687 3.04531 126.841 3.15482C126.996 3.26111 127.176 3.31425 127.382 3.31425Z" fill="white"/>
<path d="M134.289 3.97131V0.0579752H135.946C136.349 0.0579752 136.668 0.170705 136.903 0.396164C137.138 0.618403 137.255 0.921162 137.255 1.30444C137.255 1.6845 137.136 1.98726 136.898 2.21272C136.663 2.43818 136.345 2.55091 135.946 2.55091H135.086V3.97131H134.289ZM135.086 1.84071H135.898C136.068 1.84071 136.204 1.7924 136.304 1.69578C136.403 1.59915 136.453 1.46871 136.453 1.30444C136.453 1.14018 136.403 1.00974 136.304 0.91311C136.204 0.816485 136.068 0.768172 135.898 0.768172H135.086V1.84071Z" fill="white"/>
</svg>
