<svg width="395" height="92" version="1.1" viewBox="105 0 395 92" xmlns="http://www.w3.org/2000/svg">
<path d="m45.761 0.24644c-25.257 0-45.761 20.504-45.761 45.761s20.504 45.746 45.761 45.746 45.746-20.489 45.746-45.746-20.489-45.761-45.746-45.761zm139.94 9.3711v72.765h39.314v-4.978h-28.788v-30.018h25.714v-4.9929h-25.714v-27.709h27.858v-5.0679zm56.662 0v72.765h6.0575v-53.963l43.227 53.963h4.6781v-72.765h-6.0574v54.038l-43.302-54.038zm74.849 0v72.765h6.0575v-53.963l43.302 53.963h4.6782v-72.765h-6.1325v54.038l-43.228-54.038zm74.234 0v72.765h39.298v-4.978h-28.788v-30.018h25.73v-4.9929h-25.73v-27.709h27.874v-5.0679zm-272.84 0.075v72.78h10.526v-35.085h8.2165l22.341 35.085h11.59l-22.881-35.25 0.0752-0.075c12.129-1.9192 19.117-8.7501 19.117-19.267 0-10.517-9.2905-18.187-22.341-18.187zm328.72 0v72.78h10.526v-35.085h8.2166l22.326 35.085h11.605l-22.881-35.25 0.075-0.075c12.129-1.9192 19.117-8.7501 19.117-19.267 0-10.517-9.2906-18.187-22.341-18.187zm-318.2 4.903h12.355c8.7516 0 15.204 5.7691 15.204 13.6s-7.1377 14.124-17.348 14.124h-10.211zm328.72 0h12.355c8.7516 0 15.204 5.7691 15.204 13.6s-7.1376 14.124-17.348 14.124h-10.211z" fill="#d72027"/>
</svg>
